PathFileType	4	(X/Y/Z)	Patient4_TMGait_0pt6_02_left_31.trc.trc
DataRate	CameraRate	NumFrames	NumMarkers	Units	OrigDataRate	OrigDataStartFrame	OrigNumFrames
83.333333333333	83.333333333333	5	33	mm	83.333333333333	89	       141
Frame#	Time	Sacral			L.Shoulder			Chest			R.Shoulder			Neck			R.ASIS			L.ASIS			R.Thigh.Superior			R.Thigh.Lateral			R.Thigh.Inferior			R.Patella			L.Thigh.Superior			L.Thigh.Lateral			L.Thigh.Inferior			L.Patella			L.Shank.Superior			L.Shank.Lateral			L.Shank.Inferior			R.Shank.Superior			R.Shank.Lateral			R.Shank.Inferior			R.Heel			R.Midfoot.Superior			R.Midfoot.Lateral			R.Toe			L.Heel			L.Midfoot.Lateral			L.Midfoot.Superior			L.Toe			L.Elbow			L.Wrist			R.Elbow			R.Wrist			
		X1	Y1	Z1	X2	Y2	Z2	X3	Y3	Z3	X4	Y4	Z4	X5	Y5	Z5	X6	Y6	Z6	X7	Y7	Z7	X8	Y8	Z8	X9	Y9	Z9	X10	Y10	Z10	X11	Y11	Z11	X12	Y12	Z12	X13	Y13	Z13	X14	Y14	Z14	X15	Y15	Z15	X16	Y16	Z16	X17	Y17	Z17	X18	Y18	Z18	X19	Y19	Z19	X20	Y20	Z20	X21	Y21	Z21	X22	Y22	Z22	X23	Y23	Z23	X24	Y24	Z24	X25	Y25	Z25	X26	Y26	Z26	X27	Y27	Z27	X28	Y28	Z28	X29	Y29	Z29	X30	Y30	Z30	X31	Y31	Z31	X32	Y32	Z32	X33	Y33	Z33	

89	38.956000000000	827.226989303121	1011.028594050726	504.820861203730	1022.499426117678	1430.417786043313	315.289592582814	1130.741849684481	1350.173103863388	467.038103589638	1065.743492432067	1430.257909615330	644.782873193805	1039.052905859025	1488.723459544277	465.742526467040	1058.186135157080	934.365234471543	607.410533246105	1030.045720656712	959.506331894280	334.501295194839	1111.082629825605	745.692234023739	582.526709381966	1039.432619673161	634.026464058547	641.962617660499	1121.262480926530	589.009473305991	561.770431957154	1129.325441671435	501.107872943974	568.884056502566	1086.309021414332	755.083070447693	354.634349593588	1012.794672655522	636.417827011811	284.564074602867	1108.764577349797	557.571613501848	337.030951826878	1107.221392863492	469.382656499003	332.084773091758	1037.464174325123	409.699276931608	327.231894657528	894.846112437421	371.780400818628	279.675671385938	878.290734382250	244.107347746800	336.126780634239	1108.137325894146	410.546107345834	576.646837780120	1043.483792320518	301.239540983465	636.240190353330	1096.181236300857	210.765430682564	574.045467686062	975.746774887544	41.646721599133	537.990672894186	1144.928305777271	99.605225818597	577.315103086804	1057.812331445518	36.496526427509	614.415761820077	1265.390306688898	50.420096930858	605.601919254480	684.580226191458	181.823108235398	374.400212681034	742.580133446811	138.399509517422	293.208754894939	847.661842582418	145.974817502778	314.589577436120	925.819439505969	38.399541952021	284.249859968393	958.138377046160	1083.258913110343	200.472407659709	1177.776880736006	946.854161300914	191.068733513445	992.256000465136	1092.842768005106	774.360664296071	1025.201132928414	832.762016463866	767.425227863401	
90	38.968000000000	826.210152849632	1011.853060248237	507.401959510768	1020.301354271260	1431.423835713331	317.707142151887	1129.445789328400	1351.147328270339	468.815601388591	1065.317945183526	1430.921878359401	647.043355258082	1037.638914151438	1489.613699821265	468.191677915411	1057.136184140240	935.350202717817	609.457992824346	1028.314237817921	960.080755948517	336.710587361041	1107.826419432773	745.073881109295	585.582852982217	1034.523395508307	634.173576701484	644.151552474641	1116.236650279949	588.478391969125	564.226005992485	1123.206157586100	500.718454059426	571.140478856924	1088.785776035856	759.018476134086	356.538256334911	1018.701797612898	639.215861762963	285.137472956426	1116.892097884469	562.484830726026	337.108248574084	1117.178323818923	473.634749986416	331.519511721937	1046.979555125452	413.275204276522	327.026361978103	903.422864595084	376.990378141326	280.760290308014	886.108620813137	249.310035876684	336.961630709889	1101.714564171695	410.361283485427	578.513719704899	1036.361380749255	301.073048547855	637.380324972565	1089.149173221969	210.677087352224	575.093844990868	968.511901709508	41.610684487003	538.140813870005	1137.792417084543	99.535284262496	577.706252490857	1050.568802097333	36.412322165267	614.586022154527	1258.164702835650	50.345745970941	605.796870909152	692.052859142510	189.257797151881	376.990926544518	748.631938026653	145.676635161578	294.813631161341	854.177600124253	151.465505116678	315.233038890874	930.409212606700	41.333659375231	282.994158147523	953.919619294357	1083.900271752496	204.445397073202	1167.071143752293	936.670898722044	195.696345436428	1000.935407408786	1090.593319592159	775.536745129933	1043.241985471746	831.860362477209	766.425739688301	
91	38.980000000000	825.090510729400	1012.679388444748	509.757774392687	1018.050010599348	1432.361646321795	319.997479870063	1128.108502657233	1352.064901789544	470.449133136926	1064.920791587450	1431.598781105575	649.148543066637	1036.196273904314	1490.469988292940	470.477774972767	1055.946932055811	936.263958776889	611.469625511953	1026.471541369058	960.546091086455	338.886759625024	1104.483196811033	744.563070467584	588.407955776838	1029.593839818091	634.364253035279	646.209494674530	1111.192779931932	587.988694374782	566.573175393942	1117.084202917297	500.370991803658	573.338008290891	1090.903853419836	763.011734421361	358.292734844408	1024.020236135121	642.296715920869	285.518110727377	1124.297311383238	567.666175252403	336.945944506747	1126.518596344127	478.315316589278	330.673474087614	1056.258919864309	417.105759325940	326.556492295523	912.060687116527	381.455804646395	281.636596658852	894.904709835263	253.668019604560	337.566209762599	1095.295749548055	410.221016039611	580.299920841625	1029.198946333609	300.984806137952	638.450672110047	1082.105533617462	210.629544655712	576.117063529565	961.241973591238	41.605596249552	538.283823287685	1130.656867471547	99.470532762392	578.071125162254	1043.299669248427	36.351048114845	614.744931329838	1250.923216445247	50.210632428114	605.983919938252	701.087006107633	194.152524820797	379.436868875323	756.571375983644	151.010676278632	296.254480218425	862.395680297439	156.071448543327	315.645741617931	937.711372992042	44.604996077498	281.487558222735	949.594610399509	1084.514837497083	208.259191750616	1155.548059653740	926.538552272270	200.147844051213	1009.816687012965	1088.684539965436	776.519460205971	1061.725985127824	831.726845423532	765.215055707845	
92	38.992000000000	823.866547533642	1013.507195478297	511.906903366974	1015.792549939244	1433.240659664330	322.167383935460	1126.741723000956	1352.924176625781	471.962085379863	1064.540845554469	1432.294735335306	651.104648926077	1034.752393958542	1491.293274200105	472.608816770880	1054.634243578726	937.119023509283	613.439330234006	1024.569981449758	960.975598594860	341.013550475504	1101.102547377247	744.170356047127	590.960472792545	1024.706373066037	634.605613299067	648.117474791087	1106.173793019456	587.548845766505	568.768162462210	1111.016795637179	500.065589193629	575.426359563260	1092.657104295073	767.036579508039	359.885910676652	1028.754750480951	645.593102531230	285.720970968190	1130.993265581515	573.032954935949	336.558831277642	1135.222867763102	483.347778107783	329.568884249914	1065.295223526373	421.114514867500	325.835369331633	920.768822701353	385.059291590474	282.255144127794	904.708762075123	257.055151075347	337.875569653380	1088.931706957962	410.125258189268	581.975604928464	1022.046767958789	300.981359876641	639.429082048739	1075.080845713795	210.621814910380	577.095574317271	953.948525208495	41.628690275920	538.424540812895	1123.524677400355	99.420194703669	578.409527680704	1036.016763528746	36.315687262189	614.892598181280	1243.673124335838	50.034670006910	606.164869838533	711.674967717042	196.420678628623	381.578915509625	766.422500567784	154.228192213820	297.419231149143	872.369860606312	159.590263555698	315.760864492234	947.771666095368	47.960676046536	279.758841929941	945.126601335800	1085.137383871808	211.941528444032	1143.172255400652	916.581033522738	204.402190417118	1018.863125393360	1087.129345229797	777.308615642357	1080.595797346741	832.423233181958	763.743769436166	
93	39.004000000000	822.546040714149	1014.328063839299	513.876966697941	1013.561169679787	1434.064739705734	324.225896488878	1125.352828921813	1353.721637039863	473.377094543118	1064.160848862357	1433.002747248761	652.923423567422	1033.325419325104	1492.077857135224	474.599092958387	1053.218179427758	937.920020687506	615.340243816026	1022.655241125275	961.433617736985	343.056808955572	1097.720654951993	743.887133748791	593.214095718848	1019.912450954769	634.893472770679	649.863905953781	1101.216348300967	587.158997421319	570.775958042730	1105.054168395712	499.795251555269	577.364495245084	1094.048920581575	771.059084218026	361.307316184622	1032.924560590710	649.022855038808	285.766649627140	1137.001034026203	578.491487317501	335.980605415967	1143.278137495734	488.642071488646	328.257600868377	1074.079340837433	425.220996777007	324.897115999382	929.558864782977	387.723110600023	282.582171796013	915.515261252756	259.402527872727	337.843998572231	1082.666984238794	410.065491219917	583.514788273926	1014.956847861513	301.057235958508	640.300594573880	1068.102833208365	210.646099364246	578.009094931194	946.644285188746	41.673775275364	538.563837523286	1116.399119781073	99.386853340129	578.721124114530	1028.730978039620	36.305689918020	615.027555105964	1236.421276068899	49.832897075144	606.340367473281	723.783296758430	196.101418407256	383.273350218013	778.160848861361	155.280521412013	298.205611763982	884.094579504098	161.900822927608	315.527150154775	960.526128499267	51.162510199677	277.834380767606	940.485677284882	1085.794454493164	215.511597275537	1129.924982857974	906.915423944125	208.433140167684	1028.020974102354	1085.925780472108	777.915091056140	1099.786713345534	833.996500741214	761.963883927186	
